<svg xmlns="http://www.w3.org/2000/svg" xmlns:xlink="http://www.w3.org/1999/xlink" width="500" zoomAndPan="magnify" viewBox="0 0 375 374.999991" height="500" preserveAspectRatio="xMidYMid meet" version="1.2"><defs><clipPath id="68b1dbe9ba"><path d="M 67 39 L 305.859375 39 L 305.859375 335 L 67 335 Z M 67 39 "/></clipPath><clipPath id="22f2939092"><path d="M 131.371094 77 L 308 77 L 308 298 L 131.371094 298 Z M 131.371094 77 "/></clipPath></defs><g id="c7a0a1cda5"><g clip-rule="nonzero" clip-path="url(#68b1dbe9ba)"><path style=" stroke:none;fill-rule:nonzero;fill:#ff914d;fill-opacity:1;" d="M 67.730469 185.511719 C 68.195312 176.015625 74.519531 167.8125 82.316406 162.859375 C 143.734375 123.585938 205.140625 84.277344 266.578125 45.027344 C 273.671875 40.355469 282.695312 37.515625 291.074219 40.144531 C 301.320312 43.066406 306.65625 54.195312 306.253906 64.261719 C 306.347656 145.871094 306.324219 227.46875 306.398438 309.082031 C 306.515625 317.972656 302.78125 327.816406 294.378906 331.90625 C 285.667969 336.410156 275.148438 333.722656 267.292969 328.675781 C 205.828125 289.53125 144.375 250.34375 82.925781 211.1875 C 74.125 205.847656 66.960938 196.199219 67.730469 185.511719 Z M 67.730469 185.511719 "/></g><g clip-rule="nonzero" clip-path="url(#22f2939092)"><path style=" stroke:none;fill-rule:nonzero;fill:#fffcef;fill-opacity:1;" d="M 212.570312 78.113281 L 205.265625 80.703125 C 201.261719 82.117188 197.960938 86.59375 197.960938 90.597656 L 197.960938 99.785156 C 178.878906 106.617188 155.789062 114.863281 150.371094 117.457031 C 141.890625 121.226562 138.121094 133.242188 136.238281 139.835938 C 136.238281 139.835938 131.996094 150.910156 131.996094 187.898438 C 131.996094 224.886719 136.238281 235.726562 136.238281 235.726562 C 138.828125 243.5 142.597656 254.335938 150.609375 258.578125 C 154.613281 260.699219 178.171875 269.179688 197.960938 276.011719 L 197.960938 284.964844 C 197.960938 288.96875 201.261719 293.445312 205.265625 294.859375 L 212.570312 297.449219 C 216.574219 298.863281 219.871094 296.742188 219.871094 292.738281 L 219.871094 283.550781 C 223.171875 284.726562 225.054688 285.433594 225.054688 285.433594 C 226.234375 286.140625 231.652344 286.613281 233.300781 286.613281 L 299.972656 286.613281 C 304.214844 286.613281 307.75 283.078125 307.75 278.839844 L 307.75 250.566406 C 307.75 246.328125 304.214844 242.792969 299.972656 242.792969 L 285.839844 242.792969 L 285.839844 132.769531 L 299.972656 132.769531 C 304.214844 132.769531 307.75 129.234375 307.75 124.996094 L 307.75 96.488281 C 307.75 92.246094 304.214844 88.714844 299.972656 88.714844 L 233.300781 88.714844 C 231.886719 88.714844 226.234375 89.183594 225.054688 89.890625 C 225.054688 89.890625 223.171875 90.597656 219.871094 91.777344 L 219.871094 82.824219 C 219.871094 79.054688 216.574219 76.933594 212.570312 78.113281 Z M 253.5625 242.792969 L 247.203125 252.214844 C 245.789062 269.648438 251.914062 271.769531 245.316406 275.539062 L 237.304688 275.539062 C 229.53125 275.539062 229.296875 271.0625 229.296875 266.117188 C 229.296875 261.40625 233.300781 251.980469 236.128906 245.621094 C 239.191406 238.789062 236.601562 233.839844 246.730469 231.25 C 251.441406 231.484375 253.5625 234.074219 253.5625 242.792969 Z M 201.023438 259.285156 C 176.996094 253.394531 160.265625 243.5 156.261719 242.085938 C 153.433594 241.144531 148.25 243.5 148.25 187.664062 C 148.25 131.828125 155.789062 134.890625 156.027344 134.65625 C 161.445312 132.0625 179.113281 121.695312 201.023438 116.277344 C 201.023438 116.277344 203.851562 137.246094 203.851562 185.070312 C 203.851562 232.898438 201.023438 259.285156 201.023438 259.285156 Z M 246.730469 144.078125 C 233.066406 133.003906 239.191406 136.539062 236.128906 129.707031 C 233.300781 123.582031 229.296875 113.921875 229.296875 109.210938 C 229.296875 104.261719 229.53125 99.785156 237.304688 99.785156 L 245.316406 99.785156 C 251.675781 103.320312 246.023438 106.382812 247.671875 124.054688 L 253.328125 132.769531 C 253.5625 141.488281 250.265625 147.140625 246.730469 144.078125 Z M 246.730469 144.078125 "/></g></g></svg>